<?xml version="1.0" encoding="UTF-8"?>
<svg width="143px" height="39px" viewBox="0 0 143 39" version="1.1" xmlns="http://www.w3.org/2000/svg" xmlns:xlink="http://www.w3.org/1999/xlink">
    <!-- Generator: Sketch 51.2 (57519) - http://www.bohemiancoding.com/sketch -->
    <title>Group 5</title>
    <desc>Created with Sketch.</desc>
    <defs></defs>
    <g id="Page-27" stroke="none" stroke-width="1" fill="none" fill-rule="evenodd">
        <g id="Group-5" transform="translate(0.000000, -1.000000)">
            <g id="fhirbase" transform="translate(0.747865, 0.995629)" fill="#444444" fill-rule="nonzero">
                <path d="M22.9608042,14.9748894 C22.8478943,14.1992256 22.6889552,13.415452 22.427278,12.6813836 C22.0829523,11.7165782 21.6514011,10.7795031 21.1944197,9.8633565 C20.8806106,9.23340764 20.4831361,8.64217657 20.0803209,8.06533383 C19.6856436,7.49947857 19.2553636,6.95690637 18.8075373,6.4344778 C18.3922614,5.95050546 17.9322283,5.50708212 17.4742298,5.02677228 C17.5940063,5.57693113 17.7247177,6.07659989 17.8071116,6.58411682 C17.9289227,7.33492801 17.899932,8.08469273 17.6496984,8.8093432 C17.50322,9.23393083 17.2934208,9.62372479 16.9457895,9.94262335 C16.6215538,8.66781399 16.1994116,7.46390009 15.6491013,6.30916822 C15.1305786,5.22114605 14.5199984,4.18936931 13.759126,3.26406649 C13.336475,2.74974777 12.8581323,2.2843495 12.3980992,1.80377803 C12.2556898,1.6538774 12.0972594,1.51810354 11.9352687,1.39017787 C11.2405148,0.838711002 10.4908312,0.37854486 9.69486477,0 L9.53923128,0 C9.53973996,0.719418358 9.59034622,1.44406885 9.52600766,2.15694704 C9.4642121,2.84340296 9.33273813,3.53325978 9.14531711,4.19538627 C8.65959932,5.91545015 7.88143423,7.5036643 6.91991671,8.99063664 C6.27958329,9.9802947 5.58864361,10.9359439 4.91575915,11.9028422 C4.81225798,12.0516964 4.68129224,12.1801452 4.53125387,12.3548985 C4.46818705,10.7648531 4.24999542,9.28049683 3.43012455,7.89685911 C3.41181475,8.00778037 3.40037114,8.0721356 3.39070765,8.13649084 C3.34773054,8.43707692 3.32382613,8.74237189 3.25872472,9.03824903 C3.03315848,10.0681945 2.60364171,11.0201813 2.17056465,11.9695518 C1.70417406,12.9919107 1.17115617,13.9873242 0.774698693,15.0374134 C0.231000136,16.4778196 -0.0357630824,17.9799653 0.127244775,19.5454196 C0.209130152,20.3339022 0.406723097,21.0797427 0.729687185,21.7894816 C1.30390206,23.0509491 2.20031803,24.0557803 3.22490248,24.9379179 C4.19099717,25.7695656 5.23999492,26.4845366 6.34315881,27.1131775 C6.41080339,27.1518954 6.47768493,27.1921827 6.60229299,27.2656942 C6.54176914,27.1016668 6.51201544,27.006442 6.47285283,26.9154029 C5.92533994,25.6578596 5.53752866,24.3699699 5.65679639,22.9627876 C5.70587707,22.3848985 5.83150203,21.8318619 6.03265534,21.2963531 C6.38791606,20.3495984 6.97255726,19.5341705 7.48065321,18.6742693 C8.0070592,17.7824522 8.43428743,16.8430227 8.71681763,15.837145 C8.7590319,15.6877675 8.81955575,15.5436222 8.864313,15.3947681 C8.90754418,15.2503612 8.94136646,15.1033382 8.99604132,14.8927449 C9.6991877,16.1589212 9.8955094,17.4345152 9.6933387,18.8097817 C10.0633486,18.3289485 10.4229323,17.8528244 10.6930014,17.3280414 C11.6537559,15.4625242 12.0456363,13.4667269 11.8732193,11.3199825 C14.2740883,13.1991032 15.7999027,15.6341382 16.5305138,18.5939561 C17.259853,21.5493267 17.068109,24.433802 15.7419218,27.2382255 C15.8258417,27.2094488 15.8685642,27.2034318 15.9018778,27.1819801 C16.8117721,26.5999053 17.7168345,26.0141679 18.5611184,25.3250959 C19.3700542,24.6640158 20.1042255,23.9294242 20.7623599,23.1228909 C21.497548,22.222179 22.0791381,21.2123773 22.4799185,20.101857 C22.8260243,19.1422837 23.0604908,18.1552417 23.0699002,17.1307901 C23.0770204,16.4116332 23.0640512,15.6835818 22.9608042,14.9748894 Z M20.0739636,30.2535041 C19.6670797,29.1675747 19.196366,28.7837977 18.0118252,28.7647005 C15.3464816,28.7835362 12.6808837,28.7594683 10.0150315,28.7647005 C9.29942453,28.7660085 8.62984609,28.909369 8.43072707,29.7402318 C8.1171724,31.0472188 7.83311661,32.36467 7.61111074,33.6910158 C7.49896325,34.3622985 7.6980818,34.7756371 8.56271021,34.7706666 C12.7266579,34.745029 16.8903513,34.742413 21.054045,34.7706666 C21.7472733,34.6866908 21.6653878,34.3554967 21.4787298,33.8348994 C21.0479417,32.6343865 20.5314533,31.4733761 20.0739636,30.2535041 Z M19.971225,35.9452806 C17.1698297,35.9452806 10.7247894,35.9499894 8.34324732,35.9452806 C8.08843608,35.9447573 8.07699242,36.3028968 8.12785302,36.424544 C8.8986435,38.2767192 9.02325204,38.3052344 11.0482622,38.3115129 C12.8507577,38.3164835 14.6527446,38.321454 16.4552402,38.3115129 C17.0744661,38.3078504 17.3262258,38.2798585 17.8373734,37.9604367 C18.6361377,37.4618144 19.3601365,37.0840544 20.1459311,36.4807894 C20.4439736,36.2518836 20.5632413,35.9452806 19.971225,35.9452806 Z M6.19515474,35.9601922 C4.76317781,35.9601922 3.60432169,35.9615002 2.21123522,35.9601922 C2.20565839,36.7382103 4.83031369,37.9593902 5.17438463,38.0828687 C5.96704553,38.3669734 6.76733538,38.3078504 7.72885242,38.2016382 C7.47912762,37.3906574 7.27594001,35.9601922 6.19515474,35.9601922 Z M5.42970458,34.8418236 C5.77402986,34.8151397 6.26127324,34.8347601 6.47870183,34.0842106 C6.83879419,32.8415789 7.19939476,31.3807673 7.41046613,30.2354532 C7.66883727,28.8329798 7.47048128,28.8355958 6.74343066,28.8355958 C6.33324075,28.8355958 5.85235506,28.8429208 5.37248626,28.8355958 C4.29983865,28.8193762 3.22337668,28.8314102 2.88133995,29.364303 C1.91219343,30.8732504 0.226931316,34.0732231 1.7517286,34.6207659 C2.46301242,34.9069636 5.18099667,34.8609208 5.42970458,34.8418236 Z"></path>
            </g>
            <g id="Group-4" transform="translate(36.000000, 8.995629)">
                <g id="Group-2" transform="translate(28.483889, 0.124904)">
                    <path d="M0.15271932,21.506542 L0.15271932,6.7801979 L5.02770417,6.7801979 L5.02770417,14.2701834 L5.02770417,16.6315572 C5.02770417,19.323937 2.84509911,21.506542 0.15271932,21.506542 Z" id="Combined-Shape" fill="#404040"></path>
                    <path d="M2.61009384,0.0246744197 L2.61009384,0.0246744197 C3.96726431,0.0246744197 5.06746835,1.12487847 5.06746835,2.48204894 L5.06746835,4.93942345 L0.15271932,4.93942345 L0.15271932,2.48204894 C0.15271932,1.12487847 1.25292337,0.0246744197 2.61009384,0.0246744197 Z" id="Rectangle-5" fill="#EA4A35"></path>
                </g>
                <path d="M2.14058377,21.5631831 L2.14058377,10.6072822 L0.347066134,10.6072822 L0.347066134,7.04871546 L2.14058377,7.04871546 C1.89149163,5.13825512 2.32905315,3.57204788 3.45326832,2.35009375 C5.13959108,0.517162559 8.44686011,0.679192026 9.91249353,0.679192026 L9.91249353,4.33604071 C8.34773913,4.33604071 7.53901907,4.43189262 6.87751555,4.93955645 C6.26844556,5.40698072 6.0639844,6.11952324 6.26413206,7.077184 L9.91249353,7.077184 L9.91249353,10.6072822 L6.46780093,10.6072822 L6.46780093,17.2359659 C6.46780093,19.6258219 4.53043981,21.5631831 2.14058377,21.5631831 Z M11.9195252,21.5631831 L11.9195252,5.10837046 C11.9195252,2.71851441 13.8568863,0.781153303 16.2467423,0.781153303 L16.2467423,9.35729914 C17.5183432,7.72509504 19.0081816,6.90900523 20.7163022,6.90900523 C22.3485063,6.90900523 23.6200881,7.4119443 24.5310857,8.41783753 C25.4420834,9.42373075 25.8975753,10.8091855 25.8975753,12.5742435 L25.8975753,21.5631831 L21.5703582,21.5631831 L21.5703582,13.9407331 C21.5703582,12.9348399 21.3426122,12.1661971 20.8871134,11.6347819 C20.4316146,11.1033666 19.7863342,10.8376629 18.9512531,10.8376629 C18.1161719,10.8376629 17.4566575,11.1033666 16.97269,11.6347819 C16.4887225,12.1661971 16.2467423,12.9348399 16.2467423,13.9407331 L16.2467423,21.5631831 L11.9195252,21.5631831 Z M35.7619224,21.5631831 L35.7619224,6.90679242 L40.0891395,6.90679242 L40.0891395,9.98139408 C41.0760537,7.64696263 42.6987439,6.52721149 44.9572588,6.62210708 L44.9572588,11.148604 L44.7295106,11.148604 C43.2491394,11.148604 42.1056647,11.5993513 41.2990522,12.5008593 C40.4924397,13.4023674 40.0891395,14.1423763 40.0891395,15.9264133 L40.0891395,21.5631831 L35.7619224,21.5631831 Z" id="fhirbase" fill="#404040"></path>
                <path d="M69.4427231,21.8501078 C67.9895048,21.8501078 66.7800406,21.4489956 65.8142942,20.6467592 C64.8485478,19.8445229 64.3656819,18.7323482 64.3656819,17.3102019 C64.3656819,15.760427 64.9037325,14.5935552 65.9798499,13.8095515 C67.0559673,13.0255478 68.5045651,12.6335518 70.3256868,12.6335518 C71.5581631,12.6335518 72.7630286,12.8341079 73.9403194,13.2352261 L73.9403194,12.9890866 C73.9403194,11.2022873 72.8826131,10.3089011 70.7671686,10.3089011 C69.497902,10.3089011 68.1366799,10.5732705 66.6834616,11.1020172 L65.6349422,7.92955284 C67.4376687,7.1455491 69.3507376,6.75355311 71.3742062,6.75355311 C73.6000216,6.75355311 75.2647594,7.30052426 76.3684696,8.39448297 C77.4353894,9.45197639 77.9688413,11.0108442 77.9688413,13.0711331 L77.9688413,21.5766195 L73.9127268,21.5766195 L73.9127268,19.9903873 C72.7906215,21.2302072 71.3006352,21.8501078 69.4427231,21.8501078 Z M70.7119834,18.9784806 C71.6869274,18.9784806 72.4779078,18.7369016 73.0849483,18.2537365 C73.6919889,17.7705714 73.9955046,17.1552289 73.9955046,16.4076904 L73.9955046,15.669272 C73.2045124,15.3046191 72.3123601,15.1222954 71.319021,15.1222954 C70.3992625,15.1222954 69.6864604,15.300061 69.1805933,15.6555976 C68.6747261,16.0111342 68.4217963,16.5261987 68.4217963,17.2008065 C68.4217963,17.7477859 68.6333376,18.1808047 69.0564265,18.499876 C69.4795154,18.8189473 70.0313622,18.9784806 70.7119834,18.9784806 Z" id="Combined-Shape" fill="#404040" fill-rule="nonzero"></path>
                <path d="M85.5637087,21.8501078 C83.2275222,21.8501078 81.1121095,21.1116968 79.2174071,19.6348525 L81.0109271,16.8999694 C82.629702,18.0668587 84.1840704,18.6502946 85.6740791,18.6502946 C86.8513699,18.6502946 87.4400065,18.2674148 87.4400065,17.5016437 C87.4400065,17.4104805 87.4262103,17.3193186 87.3986176,17.2281554 C87.3710248,17.1369921 87.3204389,17.0549465 87.2468582,16.9820159 C87.1732775,16.9090853 87.0950992,16.8407139 87.012321,16.7768997 C86.9295427,16.7130854 86.8191734,16.6492721 86.6812096,16.5854578 C86.5432458,16.5216436 86.423679,16.4669465 86.3225056,16.4213649 C86.2213322,16.3757832 86.0787717,16.3210861 85.8948201,16.2572719 C85.7108684,16.1934576 85.5545118,16.1433186 85.4257456,16.1068533 C85.2969794,16.070388 85.1222279,16.020249 84.9014859,15.9564347 C84.6807439,15.8926205 84.5059924,15.8424815 84.3772262,15.8060162 C83.7517905,15.6236897 83.2229373,15.4368079 82.7906508,15.2453651 C82.3583644,15.0539224 81.9030908,14.789553 81.4248164,14.452249 C80.946542,14.1149451 80.5832428,13.6864844 80.3349081,13.166854 C80.0865733,12.6472236 79.9624077,12.0409972 79.9624077,11.3481567 C79.9624077,9.90777775 80.4774647,8.77281261 81.5075942,7.94322726 C82.5377237,7.1136419 83.8253662,6.69885545 85.3705604,6.69885545 C87.3572386,6.69885545 89.1967279,7.26405897 90.8890834,8.39448297 L89.2887117,11.2661102 C87.7251224,10.354478 86.3914926,9.89866867 85.2877825,9.89866867 C84.2576531,9.89866867 83.7425961,10.2541999 83.7425961,10.9652731 C83.7425961,11.4575545 84.5887611,11.9862933 86.2811167,12.5515053 C86.4834635,12.6244359 86.6398201,12.679133 86.7501911,12.7155983 C87.2468607,12.8796921 87.6699432,13.0346672 88.0194514,13.1805284 C88.3689596,13.3263895 88.7644498,13.5269456 89.2059339,13.7822027 C89.647418,14.0374597 90.0015196,14.3063872 90.2682496,14.5889932 C90.5349795,14.8715992 90.760317,15.2316885 90.9442687,15.669272 C91.1282204,16.1068555 91.2201948,16.5900133 91.2201948,17.11876 C91.2201948,18.6867675 90.7005391,19.8673136 89.6612121,20.6604337 C88.621885,21.4535537 87.2560642,21.8501078 85.5637087,21.8501078 Z" id="Path" fill="#404040" fill-rule="nonzero"></path>
                <path d="M100.029137,21.9048055 C97.7849267,21.9048055 95.93624,21.1983011 94.4830216,19.7852711 C93.0298033,18.3722411 92.303205,16.5353296 92.303205,14.2744816 C92.303205,12.1412621 92.9930135,10.3362574 94.3726511,8.8594131 C95.7522888,7.38256884 97.4998036,6.64415779 99.6152481,6.64415779 C101.951435,6.64415779 103.735739,7.4099174 104.968215,8.94145959 C106.200692,10.4730018 106.816921,12.3600522 106.816921,14.6026676 C106.816921,14.8214593 106.798526,15.1861068 106.761735,15.6966208 L96.4696899,15.6966208 C96.6720368,16.6264857 97.0859219,17.3375482 97.7113576,17.8298297 C98.3367934,18.3221111 99.1277738,18.5682481 100.084323,18.5682481 C101.39038,18.5682481 102.586048,18.0668579 103.671363,17.0640624 L106.07192,19.1699224 C104.581911,20.9931869 102.567671,21.9048055 100.029137,21.9048055 Z M96.4145047,13.0984819 L102.733214,13.0984819 C102.604447,12.1503843 102.268741,11.3937409 101.726083,10.8285289 C101.183426,10.2633169 100.479821,9.98071517 99.6152481,9.98071517 C98.7690703,9.98071517 98.0654656,10.2587588 97.504413,10.8148545 C96.9433603,11.3709502 96.5800612,12.1321517 96.4145047,13.0984819 Z" id="Combined-Shape" fill="#404040" fill-rule="nonzero"></path>
                <path d="M56.3873752,21.8478684 C54.4894635,21.8478684 52.9047309,21.0887151 51.6331301,19.5703857 L51.6331301,21.5631831 L47.5108397,21.5631831 L47.5108397,0.781153303 L51.6331301,0.781153303 L51.6331301,9.38576768 C52.8477936,7.73458446 54.4325261,6.90900523 56.3873752,6.90900523 C58.285287,6.90900523 59.9174666,7.62071146 61.2839631,9.04414527 C64.2264815,12.1701437 63.3458535,17.6403758 61.2981973,19.7269626 C59.9411904,21.1409069 58.3042661,21.8478684 56.3873752,21.8478684 Z M53.086804,17.354674 C53.7703219,18.0921539 54.6067194,18.4608883 55.5960217,18.4608883 C56.5853239,18.4608883 57.4217214,18.0876571 58.1052393,17.3411836 C58.7887572,16.5947101 59.130511,15.618913 59.130511,14.413763 C59.130511,13.2445877 58.7887572,12.2867776 58.1052393,11.5403041 C57.4217214,10.7938306 56.5853239,10.4205995 55.5960217,10.4205995 C54.6067194,10.4205995 53.7748187,10.7938306 53.1002944,11.5403041 C52.4257702,12.2867776 52.0885131,13.2625747 52.0885131,14.4677247 C52.0885131,15.6369001 52.4212734,16.5992069 53.086804,17.354674 Z" id="Combined-Shape" fill="#404040" fill-rule="nonzero"></path>
            </g>
        </g>
    </g>
</svg>